<svg id="圖層_1" data-name="圖層 1" xmlns="http://www.w3.org/2000/svg" viewBox="0 0 116 122"><defs><style>.cls-1{isolation:isolate;}.cls-2{fill:#0aaf4b;}</style></defs><title>article-title</title><g class="cls-1"><path class="cls-2" d="M29.47,29.88l-1.29,2.58a28.83,28.83,0,0,1-5.59-5.37,35.2,35.2,0,0,1-4.29-6.23V31.17H26v23.2H21.3V50.93H9.7v3H5V31.17h8.59v-9c-2,1.71-3.94,3.51-5.8,5.37A51.7,51.7,0,0,1,2,32.89L.68,31.17c1.86-2,3.65-4.08,5.37-6.23s3.08-4.37,4.51-6.66H2V16.13h11.6V7.54c-1.58.28-3.08.5-4.51.64A35.55,35.55,0,0,0,5,8.82L3.26,6.25a71.09,71.09,0,0,0,9.88-1.51A64.28,64.28,0,0,0,22.59,2l1.29,1.72a8.83,8.83,0,0,1,1.29,1.72A5.19,5.19,0,0,1,22,6.68a14.78,14.78,0,0,0-3.65.43v9h9.45v2.15H20.88a29.21,29.21,0,0,0,3.65,6.23A43.21,43.21,0,0,0,29.47,29.88ZM13.14,14.41l-3,1.72c-.71-.86-1.5-1.72-2.36-2.58S6.27,11.83,5.41,11L7.55,9.25a13.31,13.31,0,0,1,2.8,2.15A19.21,19.21,0,0,1,13.14,14.41Zm.43,24.92v-6H9.7v6Zm0,9.46V41.91H9.7v6.88Zm7.73-9.46v-6h-3v6Zm0,9.46V41.91h-3v6.88Zm5.16-38.25a3.36,3.36,0,0,0-.64.86,3.41,3.41,0,0,0-.65.86L21.73,15.7l-2.57-1.29q.86-1.5,1.5-2.79c.57-1,1.07-1.94,1.5-2.8Zm14.61,36.1A7.91,7.91,0,0,1,40,50.5a5.49,5.49,0,0,1-2.8,2.58H29.9l-.86-3c.71.15,1.5.29,2.36.43s1.51.29,2.37.43a4.75,4.75,0,0,0,1.71-.86,3.25,3.25,0,0,0,.86-1.28V32.89a15,15,0,0,0-3,3,17.58,17.58,0,0,0-2.58,3.86,11,11,0,0,0-.65,1.08l-.64.64A3.11,3.11,0,0,1,27.54,40,9,9,0,0,1,26.46,38c1.58-2,3.22-4,4.94-6s3.22-4,4.94-6V7.11H26.89V4.53H41.07ZM35.91,21.72l-3.86,1.71Q31,20.87,29.68,18.28q-1.07-2.58-2.36-5.16l2.15-1.72Q31,14,32.69,16.56C33.69,18.28,34.77,20,35.91,21.72ZM54,46.64a25,25,0,0,1-1.07,4.08c-.58,1.57-1.36,2.51-2.37,2.79h-7.3l-.86-3c.57.15,1.29.29,2.15.43s1.57.29,2.58.43a3.35,3.35,0,0,0,1.29-.86,3.4,3.4,0,0,0,.85-1.28V32.46l-3,4.51q-2.16,3.22-3,3.65c-.57-.14-1-.79-1.29-1.93s-.72-1.65-.86-1.94q2.15-2.36,4.08-4.94c1.43-1.57,2.8-3.22,4.08-4.94V7.11H42.79V4.53H54ZM49.23,20.43,45.8,22.57c-.86-1.57-1.65-3.15-2.37-4.72s-1.64-3.15-2.36-4.73l1.29-1.72A20.67,20.67,0,0,1,46,15.7C47,17.28,48.09,18.85,49.23,20.43Z"/><path class="cls-2" d="M85.67,46.64H75.36v8.59h-4.3V46.64H61.61V44.49h9.45v-6H62.9V18.28h8.16V12.69H62V10.54h9v-6a12.92,12.92,0,0,0-.43-1.72,3.38,3.38,0,0,1-.43-1.29c0-.43.07-.64.22-.64.14-.15.36-.15.64,0l4.3.21.43.43a1.23,1.23,0,0,1,.43.86l-.43,1.29A2.29,2.29,0,0,0,75.36,5v5.58h9.45v2.15H75.36v5.59H84V38.47H75.36v6H85.67ZM71.06,26.87V20.43H67.62v6.44Zm0,9.45V29H67.62v7.3Zm8.17,0V29H75.36v7.3Zm0-9.45V20.43H75.79v6.44Zm35.23,10.31-3,3L108,36.75,89.54,38.9l-.86.43-.86.43A2.52,2.52,0,0,1,86.1,38a8.94,8.94,0,0,1-.43-2.14L96.84,35V31.6H87.39V14.84h9.45v-4.3H86.1V8.4H96.84V4.53A7.32,7.32,0,0,1,96.41,3,5,5,0,0,1,96,1.52l.43-.43L97.7.88h1.94a10.2,10.2,0,0,1,1.93.21L102,2.38a4.15,4.15,0,0,0-.21,1.29A3.89,3.89,0,0,0,101.57,5V8.4h11.6v2.14h-11.6v4.3h9.88V31.6H108A20.53,20.53,0,0,1,111.24,34Zm-.86,7.31h-5.15v2.58a31.16,31.16,0,0,1-.22,3.22,7.57,7.57,0,0,1-1.5,3.22A19.05,19.05,0,0,1,102,54.8a35,35,0,0,1-4.73.43l-.86-3c.58.15,1.29.29,2.15.43s1.58.29,2.58.43a4.85,4.85,0,0,0,1.5-.64,5.75,5.75,0,0,0,1.08-1.51V44.49H86.1V42.34h17.62a12.57,12.57,0,0,1-.65-2.15,11.11,11.11,0,0,1-.21-2.15q-.21-.21,0-.21c0-.14.14-.22.43-.22h.43a8,8,0,0,1,2.58,0,7,7,0,0,1,2.58.86c-.15.58-.29,1.22-.43,1.94s-.29,1.21-.43,1.93h5.58Zm-15,5.16-3,2.57-3.43-3-3.44-3,1.72-1.29a17.89,17.89,0,0,1,4.51,1.93A33.58,33.58,0,0,1,98.56,49.65Zm-1.72-27.5V17H92.12v5.16Zm0,7.3V24.29H92.12v5.16Zm9.89-7.3V17h-5.16v5.16Zm0,7.3V24.29h-5.16v5.16ZM105,34.18l-1.29-1.29.43-1.29h-2.58v3Z"/></g><g class="cls-1"><path class="cls-2" d="M51.81,76.54a4.15,4.15,0,0,0-.21,1.29,3.89,3.89,0,0,0-.22,1.29v42.11H46.66v-3H8.41v3H3.69V78.69a3.89,3.89,0,0,1-.22-1.29,4.15,4.15,0,0,1-.21-1.29v-.86a8,8,0,0,1,2.58,0,6.9,6.9,0,0,1,2.57.86l.43,1.29a2.48,2.48,0,0,0-.21,1.08,2.39,2.39,0,0,0-.22,1.07v36.52H25.17V70.53c-.14-.43-.29-.93-.43-1.51a2.69,2.69,0,0,1-.43-1.5.83.83,0,0,1,.22-.64h.64a7.44,7.44,0,0,1,3.22.21,2.21,2.21,0,0,1,1.94,1.72l-.86,3v44.25H46.66V78.26l-.86-2.58.43-.43,1.29-.43,3.86.43Z"/><path class="cls-2" d="M77.08,105.76q-3,1.29-7.74,3.23a18.32,18.32,0,0,0-6.44,4.08h-.43a1.62,1.62,0,0,1-1.29-1.51,3.29,3.29,0,0,1-.22-1.93l.22-1.29a32.63,32.63,0,0,0,3.22-.64c1-.29,2.08-.65,3.22-1.08V84.71H61.18V83h6.44V71a17.68,17.68,0,0,1-.85-3l.85-.43a10.62,10.62,0,0,1,3,0c1.29,0,2,.57,2.15,1.72a3.08,3.08,0,0,0-.21,1.29,5.36,5.36,0,0,0-.22,1.72V83h4.3v1.72h-4.3v20.62l4.73-1.72Zm38.24,5.16q-.85,1.93-2.36,5.58c-1,2.58-2.22,4-3.66,4.3a6.7,6.7,0,0,1-5.37-3,14.63,14.63,0,0,1-2.79-5.58q-3,2.15-5.8,4.08-3,2.14-5.8,4.08L87,119.08a76.09,76.09,0,0,0,6.45-4.94c2-1.72,4-3.51,6-5.37a105.69,105.69,0,0,1-2.79-14.39q-.85-7.3-1.08-14.4h-12v8.59H94.7c-.15,2.58-.36,6.31-.65,11.18s-1.79,7.87-4.08,9H84.81l-1.72-2.15,3,.43q3.23-.85,3.65-7.09c.15-4.3.22-7.37.22-9.24H83.52L84,94.16a36.29,36.29,0,0,1-3,14,82.19,82.19,0,0,1-7.74,12.67l-2.58-1.29a48.54,48.54,0,0,0,3.44-4.72,34.66,34.66,0,0,0,2.15-4.73q.65-1.73,1.72-5.37c.71-2.44,1.14-4.08,1.29-4.94V77.83H96v-7.3L95.12,68a1.39,1.39,0,0,1,.65-.86c.14-.14.36-.14.64,0a12.79,12.79,0,0,1,2.15.22,11.19,11.19,0,0,1,2.15.21l.43,1.29c-.14.57-.29,1.07-.43,1.5a3.46,3.46,0,0,0-.43,1.51v6H113.6V80H100.28q.21,5.8.65,11.39a99,99,0,0,0,1.93,11.38c.57-1.28,1.14-2.72,1.72-4.29s1.14-3,1.72-4.73a32.63,32.63,0,0,0,.64-3.22A5.4,5.4,0,0,1,108,87.29h.43a8.31,8.31,0,0,1,2.36.64c1.14.57,1.79,1.22,1.93,1.93q-.42,2.58-3.65,9a56.48,56.48,0,0,1-4.94,9,14.92,14.92,0,0,0,1.29,3.87,4.49,4.49,0,0,0,2.58,2.58,2.14,2.14,0,0,1,.64-.43,2.6,2.6,0,0,0,.64-.43c.29-1.15.58-2.15.86-3a12.18,12.18,0,0,1,.86-3ZM111.45,74.4l-3.43,3a32.63,32.63,0,0,0-2.37-3.65,30.68,30.68,0,0,0-2.79-3.22L105,68.81a12.44,12.44,0,0,1,3.22,2.36Z"/></g></svg>