<?xml version="1.0" encoding="utf-8"?>
<!-- Generator: Adobe Illustrator 23.0.4, SVG Export Plug-In . SVG Version: 6.00 Build 0)  -->
<svg version="1.1" id="圖層_1" xmlns="http://www.w3.org/2000/svg" xmlns:xlink="http://www.w3.org/1999/xlink" x="0px" y="0px"
	 viewBox="0 0 116 121" style="enable-background:new 0 0 116 121;" xml:space="preserve">
<style type="text/css">
	.st0{enable-background:new    ;}
	.st1{fill:#CCCCCC;}
</style>
<title>video-title</title>
<g>
	<g class="st0">
		<path class="st1" d="M52.7,37.5c-0.1,2.3-0.4,4.6-0.9,6.9S51,49,50.5,51.3c-1,1-2.1,1.7-3.2,2.1c-1.1,0.6-2.4,0.9-3.7,0.9h-8.6
			v-2.1h3.9c3.9-0.1,6.2-1.2,6.9-3.2c0.9-2.1,1.4-4.8,1.7-7.9l0.4-6v-18H27.8v3.9c0,4.3-0.7,8.7-2.1,13.1c-1.3,4.4-3.3,8.5-6,12.2
			c-1.3,1.4-3.2,3-5.8,4.7c-2.6,1.6-4.8,2.9-6.7,3.9c-0.6-0.1-1.2-0.3-1.9-0.4c-0.9-0.1-1.4-0.3-1.5-0.4c0.4-0.4,0.9-0.8,1.3-1.1
			c0.4-0.3,0.9-0.5,1.3-0.6c1-0.7,1.9-1.4,2.8-2.1c1-0.9,1.9-1.6,2.8-2.1c1.3-1,2.6-2.3,4.1-3.9c1.4-1.6,2.5-3,3.2-4.3
			c1.6-3.4,2.6-7.2,3.2-11.4c0.4-4.2,0.6-7.9,0.6-11.4H3.3v-2.1H23V4c-0.1-0.3-0.3-0.8-0.4-1.5c-0.3-0.7-0.4-1.2-0.4-1.5l0.4-0.6
			h1.3c0.7-0.1,1.6-0.1,2.6,0.2c1,0.1,1.6,0.7,1.7,1.7C28,2.6,28,2.9,28,3.4c-0.1,0.3-0.2,0.6-0.2,1.1v10.3h24.9V37.5z"/>
		<path class="st1" d="M94.7,36.2H72.8l-0.9,3.4h21.5v14.6h-4.7v-3H76.2v3h-4.3V41c-1.1,2.3-2.3,4.4-3.4,6.2c-1.3,2-2.7,4.1-4.3,6.2
			l-1.7-2.1c0.6-1.1,1.1-2.3,1.7-3.4c0.6-1.3,1.1-2.4,1.7-3.4c0.1-0.9,0.5-2.3,1.1-4.3c0.6-2,0.9-3.3,1.1-3.9V20.3h26.6V36.2z
			 M98.6,15.2l-1.3,2.1c-3.3-1.4-6.1-3.3-8.4-5.6c-2.4-2.3-4.8-4.6-7.1-6.9c-2.6,2.9-5.3,5.4-8.2,7.5c-2.7,2.1-5.9,4.1-9.5,5.8
			l-1.3-1.7c3.2-2,6.1-4.4,8.8-7.3c2.6-2.7,5.1-5.6,7.5-8.6h6c1.4,2.9,3.4,5.5,5.8,7.9C93.3,11,95.8,13.2,98.6,15.2z M89.5,16.9
			H72.4v-2.1h17.2V16.9z M90,27.2v-4.3H72.8v4.3H90z M90,33.7v-4.3H72.8v4.3H90z M88.7,49.1v-7.3H76.2v7.3H88.7z M105,7
			c-0.4,0.4-0.7,0.9-0.9,1.5c-0.1,0.4-0.1,0.9,0,1.5v34.8h-4.3V8.7c-0.1-0.6-0.3-1.1-0.4-1.5C99.1,6.7,99,6.2,99,5.7V5.3l5.6,0.4
			L105,7z M114,2.7c-0.3,1.1-0.4,1.9-0.4,2.1v43.8c-0.1,0.9-0.6,1.9-1.3,3.2c-0.7,1.1-1.6,1.8-2.6,1.9h-6.9h-1.3l-0.9-3
			c0.9,0.1,1.7,0.4,2.6,0.6c0.9,0.3,1.7,0.5,2.6,0.6c0.9-0.1,1.6-0.5,2.1-1.1c0.4-0.7,0.7-1.4,0.9-1.9V4c-0.1-0.3-0.3-0.7-0.4-1.3
			c-0.3-0.4-0.4-0.9-0.4-1.3l0.4-0.9h1.7c1-0.1,1.9-0.1,2.6,0C113.5,0.9,113.9,1.6,114,2.7z"/>
	</g>
	<g class="st0">
		<path class="st1" d="M54.8,114.7l-1.7,2.1c-4.6-2.4-8.8-5.2-12.7-8.4c-3.9-3.3-7.4-6.9-10.5-11v23.2h-4.3V97.1
			c-3.3,4-6.9,7.7-11,11c-3.9,3.3-7.9,6.4-12.2,9.2l-1.3-2.6c4.3-2.9,8.2-6.1,11.6-9.7c3.4-3.7,6.4-7.8,9-12.2H2v-2.1h23.6V79H5.8
			v-2.1h19.8V70c-0.1-0.3-0.3-0.8-0.4-1.5c-0.3-0.7-0.4-1.2-0.4-1.5l0.4-0.6h1.7c0.6-0.1,1.3-0.1,2.1,0.2c0.7,0.3,1.1,0.9,1.3,1.7
			c-0.1,0.6-0.2,1.1-0.2,1.5c-0.1,0.6-0.2,1.1-0.2,1.5v5.6h20.6V79H29.9v11.6h24.5v2.1H32.9c2.9,5.6,5.9,9.9,9,12.9
			C45.2,108.7,49.5,111.7,54.8,114.7z"/>
		<path class="st1" d="M114.9,116l-2.1,2.6c-4.4-2.6-8.5-5.5-12-8.8c-3.6-3.3-6.7-6.9-9.5-11v21.5h-4.7V99.2
			c-3.3,4.2-6.8,7.8-10.5,11c-3.7,3-7.8,5.8-12.2,8.4l-1.7-1.7c4.9-3.3,9.3-6.9,13.3-10.7c4-4,7.7-8.3,11.2-12.9V80.8H64.6v-2.6
			h21.9v-7.3c-0.1-0.6-0.3-1.1-0.4-1.7c-0.1-0.7-0.3-1.1-0.4-1.3l0.4-0.9c0.9-0.1,2-0.1,3.4,0c1.3,0.1,2,0.9,2.1,2.1
			c-0.1,0.3-0.2,0.7-0.2,1.3c-0.1,0.4-0.2,1-0.2,1.7v6h22.3v2.6H91.3v10.7c2.6,5.3,5.9,9.9,10.1,13.8
			C105.5,109.1,110,112.7,114.9,116z M80.9,97.1l-2.6,1.3c-1-0.7-1.9-1.5-2.6-2.4c-0.9-0.7-1.6-1.5-2.1-2.4
			c-1.4,1.7-2.9,3.3-4.3,4.7c-1.4,1.6-2.9,3-4.3,4.3l-2.1-0.9c1.4-2.1,2.9-4.2,4.3-6.2c1.3-2.1,2.7-4.2,4.3-6.2
			c0-0.4,0.4-1.2,1.3-2.4c0.7-1.1,1.1-1.8,1.3-1.9c0.3-0.3,0.5-0.4,0.6-0.4c0.1-0.1,0.4-0.1,0.6,0h0.4l3,2.1
			c-0.3,0.7-0.7,1.1-1.3,1.3c-0.6,0.1-0.9,0.9-0.9,2.1c0.1,1.1,0.6,2.3,1.5,3.4C79,94.8,79.9,95.9,80.9,97.1z M113.2,99.2l-2.1,1.7
			c-1.7-1-3.4-2.1-4.9-3.2c-1.4-1.3-2.8-2.6-4.1-4.1l-3.9,4.7l-2.6-1.3c1.1-2,2.3-4.1,3.4-6.2c1.1-2,2.3-4.1,3.4-6.2
			c0.1-0.3,0.4-0.4,0.6-0.4c0.1-0.1,0.4-0.1,0.6,0c0.4,0,1,0.1,1.7,0.4c0.9,0.4,1.4,1,1.7,1.7c-0.6,0.6-1.1,1.1-1.5,1.7
			c-0.6,0.4-0.9,1-1.1,1.7c1.1,1.7,2.4,3.4,3.9,4.9C109.9,96.3,111.5,97.8,113.2,99.2z"/>
	</g>
</g>
</svg>
