<svg id="圖層_1" data-name="圖層 1" xmlns="http://www.w3.org/2000/svg" viewBox="0 0 116 121"><defs><style>.cls-1{isolation:isolate;}.cls-2{fill:#ccc;}</style></defs><title>video-title</title><g class="cls-1"><path class="cls-2" d="M31.8,19.4H21.9a12.71,12.71,0,0,0,2.6,4.3,33.93,33.93,0,0,0,3.9,3.4l-1.3,2.6c-1.6-1.1-3.1-2.3-4.5-3.4a31.09,31.09,0,0,1-3.7-3.4,61.46,61.46,0,0,1-7.5,6A47,47,0,0,1,3,33.2L1.3,31.5a33.89,33.89,0,0,0,8.2-4.7,28.93,28.93,0,0,0,6-7.3H2.6V17.4H16.8V8.7H12.1L6.1,16,3.5,14.3c1.1-2,2.2-4,3.2-6s2.1-4,3.2-6A3.92,3.92,0,0,1,10.1,1,1.25,1.25,0,0,1,11.2.4a4.23,4.23,0,0,1,2.4,1.1,4.62,4.62,0,0,1,1.9,1.7c-.3.4-.6.9-1.1,1.5-.3.4-.6.9-1.1,1.5H30.1V8.8h-9v8.6H31.8ZM45.6,54.7H40.4V52.1H15.9v2.6H11.2V30.2H45.6ZM40.4,40.5V32.3H15.9v8.2Zm0,9V42.6H15.9v6.9ZM52.9,27.6H33.1V6.1H52.9Zm-4.7-2.1V8.7H37.8V25.5Z"/><path class="cls-2" d="M94.1,36.2h-22l-.9,3.4H92.7V54.2H88v-3H75.6v3H71.3V40.9a69.22,69.22,0,0,1-3.4,6.2c-1.3,2-2.7,4.1-4.3,6.2l-1.7-2.1c.6-1.1,1.1-2.3,1.7-3.4a35.83,35.83,0,0,1,1.7-3.4,29.8,29.8,0,0,1,1.1-4.3c.6-2,.9-3.3,1.1-3.9V20.3H94.1Zm3.8-21.1-1.3,2.1a26.29,26.29,0,0,1-8.4-5.6C85.8,9.3,83.4,7,81.1,4.7a52,52,0,0,1-8.2,7.5A51,51,0,0,1,63.4,18l-1.3-1.7A43.25,43.25,0,0,0,70.9,9C73.5,6.3,76,3.4,78.4.4h6a34.06,34.06,0,0,0,6,8.1A59,59,0,0,0,97.9,15.1Zm-9,1.8H71.7V14.8H88.9Zm.4,10.3V22.9H72.1v4.3Zm0,6.4V29.3H72.1v4.3ZM88,49.1V41.8H75.6v7.3ZM104.4,7a3.77,3.77,0,0,0-.9,1.5,3.75,3.75,0,0,0,0,1.5V44.8H99.2V8.7a15.46,15.46,0,0,0-.4-1.5,3.36,3.36,0,0,1-.4-1.5V5.3l5.6.4Zm9-4.3a10.78,10.78,0,0,0-.4,2.1V48.6a9.72,9.72,0,0,1-1.3,3.2,3.68,3.68,0,0,1-2.6,1.9h-8.2l-.9-3a24.37,24.37,0,0,1,2.6.6,12.21,12.21,0,0,0,2.6.6,3.09,3.09,0,0,0,2.1-1.1,15.37,15.37,0,0,0,.9-1.9V4a6.83,6.83,0,0,1-.4-1.3,2.2,2.2,0,0,1-.4-1.3l.4-.9h1.7a11.22,11.22,0,0,1,2.6,0C112.8.8,113.2,1.5,113.4,2.7Z"/></g><g class="cls-1"><path class="cls-2" d="M53.7,117.2l-1.3,3a38.09,38.09,0,0,1-12.7-5.4,50.75,50.75,0,0,1-10.1-9.2H23.2v9.9l10.7-1.7-.4,2.1-22.8,4.7a3.61,3.61,0,0,1-1.1-1.3,5.85,5.85,0,0,1-.2-1.3v-.9c1.4-.1,2.9-.4,4.5-.6a30.59,30.59,0,0,1,4.5-.6V105.6H9.1q-1,3.9-2.4,7.5c-1,2.6-2.1,5.1-3.2,7.5l-2.6-.9a39.89,39.89,0,0,0,3.4-13.8c.4-4.6.7-9.5.9-14.6H52.5v2.1H9.1v9.9H53.8v2.1h-19a16.29,16.29,0,0,0,2.1,3.4,14.75,14.75,0,0,0,2.6,3l7.7-5.6a3.1,3.1,0,0,1,1.7.9,3.88,3.88,0,0,1,1.3,1.7q-.45.9-3.9,2.4a27.22,27.22,0,0,0-4.7,2.4,32.28,32.28,0,0,0,5.8,2.4A35,35,0,0,0,53.7,117.2ZM49,88.9H4.3V72.6H18.5v-3a5.85,5.85,0,0,1-.2-1.3,5.85,5.85,0,0,1-.2-1.3v-.6h1.7l3.9.2v1.7a6.05,6.05,0,0,0-.2,1.5,6.05,6.05,0,0,0-.2,1.5v1.3h8.6v-3a16.52,16.52,0,0,1-.9-3l.9-.2a8.26,8.26,0,0,1,3,.2c1.3.1,2,.7,2.1,1.7a9.85,9.85,0,0,0-.2,1.7,7.18,7.18,0,0,0-.2,1.7v.9H49ZM18.5,79.4V74.7H9.1v4.7Zm0,6.9V81.6H9.1v4.7ZM45.2,99.2H11.6V97H45.1v2.2ZM31.8,79.4V74.2H23.2v5.2Zm0,6.9V81.6H23.2v4.7Zm12.5-6.9V74.7H36.6v4.7Zm0,6.9V81.6H36.6v4.7Z"/><path class="cls-2" d="M68.7,101.8a39.19,39.19,0,0,1-2.8,7.7c-1.1,2.6-2.2,5.2-3.2,7.7l-1.9-2.1c.4-1.7.9-3.4,1.5-5.2a43.39,43.39,0,0,0,.9-5.2,10.07,10.07,0,0,0-.2-1.9,10.07,10.07,0,0,0-.2-1.9,1.17,1.17,0,0,1,.6-.6,3.09,3.09,0,0,1,1.1-.2,13.66,13.66,0,0,1,1.9.2,8.5,8.5,0,0,1,1.9.6Zm16.8-6.5-4.3,3.9a21.16,21.16,0,0,1-1.1-2.1,18.87,18.87,0,0,1-.6-2.1l-5.2.9v24.5H69.6V96.2c-.9.1-2.1.4-3.7.6s-2.9.5-3.7.6a1.5,1.5,0,0,1-1.3-1.1,3.75,3.75,0,0,1,0-1.5,3.64,3.64,0,0,1,0-1.5q.15-.45.9-.6l1.3-.4,2.6.4,3.4-4.3A62.28,62.28,0,0,0,65,82.8a55.34,55.34,0,0,0-4.1-5.2l1.7-1.3L66,78.4q.6-1.05,1.5-2.4A26,26,0,0,1,69,73.2a14.45,14.45,0,0,1,1.1-2.6A8.71,8.71,0,0,1,71.6,68a1.34,1.34,0,0,1,.9-.9,2.77,2.77,0,0,1,1.3,0,4.83,4.83,0,0,1,2.1.6,3.84,3.84,0,0,1,1.3,1.9,40.92,40.92,0,0,1-4.1,4.9c-2.4,2.6-4.1,4.4-4.9,5.4l3.9,3.9,4.7-7.3a1.34,1.34,0,0,1,.9-.9,1.39,1.39,0,0,1,.9,0,4.83,4.83,0,0,1,2.1.6A3.84,3.84,0,0,1,82,78.1a1.54,1.54,0,0,1-.4.6,3.11,3.11,0,0,0-.4.6,33.07,33.07,0,0,0-5.8,6c-1.7,2.3-3.4,4.4-4.9,6.4l7.7-.4L76,88.5l3-1.7a32.13,32.13,0,0,1,3.4,4.1A26.86,26.86,0,0,1,85.5,95.3Zm-.9,15.9L79,113.8c-.3-2.4-.6-4.8-1.1-7.1s-.9-4.5-1.5-6.7l2.6-.9c1.1,1.9,2.2,3.8,3.2,5.8S83.9,109.1,84.6,111.2Zm30.5,7.3H80.3V116H95.8V100.5H84.6V98.4h27.1v2.1H100.5V116h14.6Zm-21.5-24L89.3,97c-1.1-2-2.3-3.9-3.4-5.6-1.1-1.9-2.3-3.7-3.4-5.6,1-1.6,1.9-3.2,2.8-4.7s1.6-3.2,2.4-4.7c.1-.4.3-.8.4-1.1a.55.55,0,0,1,.4-.6l2.1-.4a10,10,0,0,0,1.3,1.5,4.21,4.21,0,0,1,.9,1.9,12.56,12.56,0,0,0-3.9,3.7q-1.5,2.1-3,4.5c1.3,1.3,2.6,2.7,3.9,4.1S92.3,92.9,93.6,94.5ZM113,71.7H82.9V69.6H113Zm-9.1,23.2L100,97c-1.1-2-2.4-3.9-3.7-5.8-1.1-2-2.4-3.9-3.7-5.8.9-1.7,1.7-3.5,2.6-5.4.9-1.7,1.7-3.5,2.6-5.4,0-.3.1-.4.2-.4a.63.63,0,0,1,.6,0,4.83,4.83,0,0,1,2.1.6,2.89,2.89,0,0,1,1.3,1.9c-1.1,1.3-2.2,2.7-3.2,4.1s-1.9,2.7-2.8,4.1a47.61,47.61,0,0,1,4.1,4.7A32.18,32.18,0,0,1,103.9,94.9Zm8.6-1.3-3.9,3a50.59,50.59,0,0,0-3.7-6c-1.1-1.9-2.4-3.7-3.7-5.6.4-.9.9-1.6,1.3-2.4s.9-1.6,1.3-2.4.8-1.7,1.1-2.6.8-1.7,1.1-2.6a1.17,1.17,0,0,1,.6-.6,3.09,3.09,0,0,1,1.1-.2,3.52,3.52,0,0,1,1.9.9c.9.6,1.4,1.1,1.5,1.7a1.17,1.17,0,0,1-.6.6,1.17,1.17,0,0,0-.6.6,24.26,24.26,0,0,0-2.4,3,29,29,0,0,0-1.9,3.4c1.1,1.4,2.3,2.9,3.4,4.5A28.72,28.72,0,0,0,112.5,93.6Z"/></g></svg>